# xmcd
# 
# Track frame offsets:
#     150
#     18802
#     35422
#     56902
#     77322
#     91905
#     109035
#     126235
#     147235
#     165825
# 
# Disc length: 2376
# 
# Revision: 3
# Processed by: cddbd v1.5.2PL0 Copyright (c) Steve Scherf et al.
# Submitted via: fre:ac v1.0.31
# 
DISCID=7009460a
DTITLE=Foreign Born - Person To Person
DYEAR=2009
DGENRE=Rock/Pop
TTITLE0=Blood Oranges
TTITLE1=That Old Sun
TTITLE2=Vacationing People
TTITLE3=Winter Games
TTITLE4=Early Warnings
TTITLE5=Can't Keep Time
TTITLE6=Lion's Share
TTITLE7=It Grew on You
TTITLE8=See Us Home
TTITLE9=Wait in This Chair
EXTD=
EXTT0=
EXTT1=
EXTT2=
EXTT3=
EXTT4=
EXTT5=
EXTT6=
EXTT7=
EXTT8=
EXTT9=
PLAYORDER=
